<svg height="512pt" viewBox="-76 0 512 512" width="512pt" xmlns="http://www.w3.org/2000/svg"><path d="m209.65625 512c-.054688 0-.113281 0-.171875 0l-59.902344-.6875c-8.203125-.097656-14.804687-6.773438-14.804687-14.976562v-101.980469c0-8.269531 6.707031-14.976563 14.976562-14.976563h59.902344c8.269531 0 14.976562 6.707032 14.976562 14.976563v102.667969c0 4.003906-1.601562 7.839843-4.449218 10.652343-2.800782 2.769531-6.585938 4.324219-10.527344 4.324219zm0 0" fill="#00347b"/><path d="m209.65625 379.378906h-29.949219v132.277344l29.777344.34375h.171875c3.941406 0 7.722656-1.554688 10.527344-4.324219 2.847656-2.8125 4.449218-6.648437 4.449218-10.652343v-102.667969c0-8.269531-6.703124-14.976563-14.976562-14.976563zm0 0" fill="#001737"/><path d="m235.617188 409.332031h-111.820313c-8.269531 0-14.976563-6.707031-14.976563-14.976562v-56.117188c0-8.273437 6.707032-14.976562 14.976563-14.976562h111.820313c8.269531 0 14.972656 6.703125 14.972656 14.976562v56.117188c0 8.269531-6.703125 14.976562-14.972656 14.976562zm0 0" fill="#fdbf00"/><path d="m235.617188 323.261719h-55.910157v86.070312h55.910157c8.269531 0 14.972656-6.707031 14.972656-14.976562v-56.117188c0-8.273437-6.703125-14.976562-14.972656-14.976562zm0 0" fill="#ff9100"/><path d="m179.707031 344.4375c90.730469 0 164.730469-74 164.730469-164.730469s-74-164.734375-164.730469-164.734375-164.730469 74.003906-164.730469 164.734375 74 164.730469 164.730469 164.730469zm0 0" fill="#f5f0eb" fill-rule="evenodd"/><path d="m179.707031 14.976562v329.460938c90.730469 0 164.730469-74 164.730469-164.730469s-74-164.730469-164.730469-164.730469zm0 0" fill="#ebe1dc" fill-rule="evenodd"/><path d="m179.707031 359.414062c-99.089843 0-179.707031-80.617187-179.707031-179.707031 0-99.089843 80.617188-179.707031 179.707031-179.707031 99.089844 0 179.707031 80.617188 179.707031 179.707031 0 99.089844-80.617187 179.707031-179.707031 179.707031zm0-329.464843c-82.574219 0-149.757812 67.179687-149.757812 149.757812 0 82.574219 67.183593 149.753907 149.757812 149.753907s149.753907-67.179688 149.753907-149.753907c0-82.578125-67.179688-149.757812-149.753907-149.757812zm0 0" fill="#3aaaff"/><path d="m179.707031 102.832031c-8.273437 0-14.976562-6.703125-14.976562-14.976562v-12.976563c0-8.273437 6.703125-14.976562 14.976562-14.976562 8.269531 0 14.972657 6.703125 14.972657 14.976562v12.976563c0 8.273437-6.703126 14.976562-14.972657 14.976562zm0 0" fill="#ff415b"/><path d="m225.617188 115.140625c-2.539063 0-5.113282-.648437-7.472657-2.007813-7.160156-4.136718-9.617187-13.296874-5.480469-20.457031l6.488282-11.242187c4.132812-7.164063 13.292968-9.617188 20.457031-5.484375 7.160156 4.136719 9.617187 13.296875 5.480469 20.457031l-6.488282 11.242188c-2.773437 4.804687-7.808593 7.492187-12.984374 7.492187zm0 0" fill="#b20042"/><path d="m259.265625 148.761719c-5.175781 0-10.210937-2.6875-12.984375-7.492188-4.132812-7.164062-1.679688-16.324219 5.480469-20.457031l11.242187-6.488281c7.160156-4.140625 16.320313-1.683594 20.457032 5.480469 4.132812 7.164062 1.679687 16.320312-5.484376 20.457031l-11.238281 6.488281c-2.359375 1.363281-4.933593 2.011719-7.472656 2.011719zm0 0" fill="#b20042"/><path d="m284.535156 194.683594h-12.980468c-8.269532 0-14.972657-6.707032-14.972657-14.976563s6.703125-14.976562 14.972657-14.976562h12.980468c8.269532 0 14.976563 6.707031 14.976563 14.976562s-6.707031 14.976563-14.976563 14.976563zm0 0" fill="#b20042"/><g fill="#ff415b"><path d="m87.855469 194.683594h-12.980469c-8.269531 0-14.972656-6.707032-14.972656-14.976563s6.703125-14.976562 14.972656-14.976562h12.980469c8.269531 0 14.976562 6.707031 14.976562 14.976562s-6.703125 14.976563-14.976562 14.976563zm0 0"/><path d="m100.148438 148.761719c-2.542969 0-5.117188-.648438-7.476563-2.011719l-11.238281-6.488281c-7.160156-4.136719-9.617188-13.292969-5.480469-20.457031 4.132813-7.164063 13.292969-9.621094 20.457031-5.480469l11.238282 6.488281c7.164062 4.136719 9.617187 13.292969 5.480468 20.457031-2.773437 4.804688-7.804687 7.492188-12.980468 7.492188zm0 0"/><path d="m133.796875 115.140625c-5.179687 0-10.210937-2.6875-12.984375-7.492187l-6.488281-11.242188c-4.136719-7.160156-1.683594-16.320312 5.480469-20.457031 7.164062-4.132813 16.320312-1.675781 20.457031 5.484375l6.488281 11.242187c4.136719 7.160157 1.679688 16.320313-5.480469 20.457031-2.359375 1.359376-4.933593 2.007813-7.472656 2.007813zm0 0"/></g><path d="m116.441406 258.285156c-3.480468 0-7.40625-1-10.859375-4.453125 0 0 0-.003906-.003906 0-6.914063-6.917969-3.992187-15.742187-2.890625-19.0625.820312-2.480469 11.230469-26.9375 15.996094-36.804687 8.847656-18.320313 21.101562-41.875 29.253906-50.027344 17.519531-17.515625 46.023438-17.515625 63.539062 0 17.515626 17.519531 17.515626 46.019531 0 63.539062-8.152343 8.152344-31.707031 20.40625-50.027343 29.253907-9.867188 4.765625-34.324219 15.175781-36.804688 15.996093-1.664062.550782-4.707031 1.558594-8.203125 1.558594zm10.316406-25.632812h.003907zm0 0" fill="#00347b"/><path d="m179.707031 0v29.949219c82.574219 0 149.753907 67.179687 149.753907 149.757812 0 82.574219-67.179688 149.753907-149.753907 149.753907v29.953124c99.089844 0 179.707031-80.617187 179.707031-179.707031 0-99.089843-80.617187-179.707031-179.707031-179.707031zm0 0" fill="#008adf"/><path d="m211.476562 147.9375c-8.761718-8.757812-20.265624-13.136719-31.769531-13.136719v96.773438c13.394531-7.019531 26.1875-14.519531 31.769531-20.101563 17.515626-17.515625 17.515626-46.015625 0-63.535156zm0 0" fill="#001737"/><path d="m179.707031 59.902344v42.929687c8.269531 0 14.976563-6.703125 14.976563-14.976562v-12.976563c-.003906-8.273437-6.707032-14.976562-14.976563-14.976562zm0 0" fill="#b20042"/></svg>